<?xml version="1.0" standalone="no"?>
<!DOCTYPE svg PUBLIC "-//W3C//DTD SVG 20010904//EN"
 "http://www.w3.org/TR/2001/REC-SVG-20010904/DTD/svg10.dtd">
<svg version="1.0" xmlns="http://www.w3.org/2000/svg"
 width="1079.000000pt" height="1079.000000pt" viewBox="0 0 1079.000000 1079.000000"
 preserveAspectRatio="xMidYMid meet">
<metadata>
Created by potrace 1.14, written by Peter Selinger 2001-2017
</metadata>
<g transform="translate(0.000000,1079.000000) scale(0.100000,-0.100000)"
fill="#000000" stroke="none">
<path d="M4930 10559 c-25 -3 -70 -9 -101 -12 -31 -4 -78 -11 -103 -17 -26 -6
-63 -13 -84 -16 -81 -12 -334 -78 -457 -119 -653 -216 -1223 -589 -1677 -1096
-36 -41 -77 -87 -89 -104 -13 -16 -29 -36 -37 -44 -55 -57 -217 -290 -317
-456 -53 -88 -173 -323 -225 -440 -64 -142 -173 -470 -205 -615 -24 -108 -51
-243 -60 -300 -2 -14 -6 -43 -10 -65 -3 -22 -8 -60 -10 -85 -2 -25 -8 -72 -12
-105 -10 -79 -10 -587 0 -695 38 -412 149 -854 293 -1168 13 -29 24 -55 24
-59 0 -14 152 -306 210 -403 95 -157 261 -394 335 -477 5 -6 32 -37 60 -70 51
-60 320 -331 390 -394 134 -119 398 -307 575 -411 92 -54 370 -198 383 -198 4
0 30 -11 59 -24 109 -50 299 -118 438 -157 25 -7 50 -14 55 -15 58 -17 125
-34 145 -38 14 -3 36 -8 50 -11 25 -5 51 -10 100 -20 78 -14 224 -36 280 -41
36 -4 70 -7 75 -8 7 -1 11 213 13 619 l2 620 -122 22 c-110 20 -309 70 -363
92 -11 5 -69 27 -130 51 -352 136 -714 387 -976 676 -189 209 -363 484 -474
748 -40 95 -110 302 -120 356 -2 12 -6 29 -9 38 -6 20 -13 56 -36 177 -22 122
-34 270 -34 435 0 125 9 292 19 340 3 14 8 45 11 70 3 25 7 52 9 60 2 8 7 31
10 50 3 19 11 53 17 75 5 22 12 49 14 60 2 11 14 56 28 100 174 574 538 1070
1032 1409 62 42 117 76 123 76 6 0 11 4 11 8 0 14 294 157 410 201 146 54 294
96 435 122 66 12 126 23 133 25 9 3 12 136 12 624 l0 620 -27 -2 c-16 -1 -48
-5 -73 -9z"/>
<path d="M5734 9949 l1 -622 120 -22 c178 -33 411 -101 530 -155 240 -110 392
-195 537 -302 521 -386 874 -923 1013 -1545 46 -206 63 -374 60 -608 -2 -115
-5 -219 -8 -230 -3 -11 -8 -49 -12 -85 -4 -36 -18 -117 -31 -181 -179 -862
-784 -1579 -1604 -1902 -164 -64 -420 -134 -557 -152 -20 -2 -39 -7 -42 -11
-9 -8 -9 -3814 0 -3814 4 0 14 17 22 38 8 20 52 114 97 207 45 94 107 222 137
285 31 63 79 165 108 225 29 61 85 178 125 260 40 83 94 195 120 250 26 55 78
163 115 240 37 77 112 235 167 350 55 116 143 297 194 404 52 106 94 195 94
196 0 1 50 105 111 231 61 126 119 247 129 270 17 36 34 49 137 109 1112 642
1833 1780 1930 3046 12 155 9 537 -6 674 -6 66 -21 174 -32 240 -11 66 -23
134 -25 150 -13 75 -78 318 -122 452 -144 436 -373 855 -661 1208 -106 130
-118 143 -276 300 -160 160 -201 197 -280 260 -27 22 -52 42 -55 45 -13 13
-194 143 -275 197 -434 288 -954 492 -1478 577 -84 14 -181 28 -218 31 l-65 7
0 -623z"/>
</g>
</svg>
